<?xml version="1.0" standalone="no"?>
<!DOCTYPE svg PUBLIC "-//W3C//DTD SVG 20010904//EN"
 "http://www.w3.org/TR/2001/REC-SVG-20010904/DTD/svg10.dtd">
<svg version="1.0" xmlns="http://www.w3.org/2000/svg"
 width="1920.000000pt" height="1920.000000pt" viewBox="0 0 1920.000000 1920.000000"
 preserveAspectRatio="xMidYMid meet">
<metadata>
Created by potrace 1.11, written by Peter Selinger 2001-2013
</metadata>
<g transform="translate(0.000000,1920.000000) scale(0.100000,-0.100000)"
fill="#000000" stroke="none">
<path d="M11459 19186 c-2 -2 -57 -6 -121 -10 -382 -20 -840 -88 -1243 -183
-286 -67 -680 -186 -890 -267 -38 -15 -110 -43 -160 -63 -49 -19 -103 -41
-120 -48 -16 -7 -88 -39 -160 -70 -174 -76 -535 -261 -720 -370 -1024 -600
-1908 -1458 -2528 -2452 -404 -647 -708 -1363 -888 -2088 -70 -283 -140 -659
-164 -885 -4 -36 -9 -72 -10 -80 -2 -8 -6 -55 -10 -105 -4 -49 -9 -98 -11
-108 -24 -135 -24 -1022 1 -1180 2 -12 6 -58 10 -102 3 -44 8 -93 10 -110 3
-16 7 -52 10 -80 5 -42 25 -182 52 -355 3 -19 6 -37 8 -40 2 -3 6 -26 10 -50
42 -292 190 -820 345 -1240 98 -263 320 -745 429 -928 17 -29 31 -55 31 -57 0
-2 40 -71 89 -153 105 -177 228 -364 340 -520 l81 -114 -139 -136 c-155 -153
-750 -736 -899 -881 -54 -51 -234 -227 -400 -390 -167 -163 -308 -297 -313
-299 -5 -2 -188 174 -406 391 -219 218 -504 500 -633 629 -235 233 -292 294
-560 593 -485 542 -788 767 -1116 825 -67 12 -255 10 -313 -4 -224 -52 -435
-182 -660 -405 -286 -285 -418 -555 -410 -835 10 -323 209 -645 640 -1041 120
-110 167 -153 234 -210 38 -33 130 -113 204 -179 75 -65 418 -402 764 -750
l627 -631 -238 -235 c-131 -129 -283 -275 -337 -325 -54 -49 -106 -97 -115
-105 -19 -17 -169 -151 -219 -195 -552 -484 -905 -887 -1079 -1234 -242 -482
-179 -887 198 -1271 164 -167 365 -284 563 -326 90 -19 267 -19 372 0 221 40
480 167 734 360 52 39 106 80 120 91 14 11 31 24 37 30 6 5 46 41 90 79 106
93 413 401 554 556 62 69 157 172 209 230 53 58 125 137 160 175 36 39 177
181 315 318 l250 248 146 -144 c671 -664 1290 -1286 1364 -1370 560 -639 819
-858 1144 -967 81 -27 248 -52 297 -45 11 2 49 6 85 10 187 18 418 139 636
334 230 203 387 428 459 651 34 105 43 293 20 400 -61 287 -242 547 -635 915
-60 56 -126 115 -304 270 -38 33 -74 65 -80 70 -6 6 -54 48 -106 94 -52 46
-388 379 -746 740 l-652 655 68 66 c38 36 247 241 466 455 219 215 495 485
613 600 118 116 302 296 409 400 106 105 198 192 203 194 6 1 18 -4 27 -12 26
-23 304 -206 432 -284 102 -62 151 -90 315 -183 71 -40 387 -196 505 -250 781
-353 1705 -582 2570 -637 69 -4 307 -8 530 -7 363 0 464 4 715 30 1704 175
3273 916 4475 2114 502 500 840 940 1224 1595 72 123 285 553 353 715 331 783
511 1539 573 2410 9 125 5 875 -5 980 -34 369 -67 606 -120 880 -201 1031
-652 2054 -1279 2900 -70 95 -254 331 -265 340 -4 3 -19 21 -35 40 -329 403
-929 955 -1371 1262 -479 332 -888 561 -1375 770 -718 308 -1549 514 -2315
574 -38 3 -88 7 -110 10 -50 6 -850 15 -856 10z m644 -2790 c100 -7 128 -9
277 -27 912 -107 1805 -513 2500 -1137 946 -849 1486 -2032 1504 -3297 13
-863 -222 -1712 -673 -2435 -617 -989 -1588 -1708 -2706 -2005 -276 -73 -530
-117 -835 -144 -104 -10 -713 -7 -780 3 -19 3 -93 12 -165 21 -1075 132 -2085
655 -2821 1461 -45 49 -110 123 -144 164 -34 41 -69 84 -78 95 -9 11 -50 67
-92 125 -413 568 -688 1221 -799 1895 -29 173 -31 190 -45 345 -3 30 -8 82
-12 115 -6 61 -6 520 0 585 2 19 7 73 10 120 4 47 9 92 11 100 2 8 6 42 10 75
18 185 105 572 180 805 133 411 363 867 616 1222 566 792 1380 1392 2294 1690
225 73 509 143 700 172 17 2 50 8 75 12 25 4 52 8 60 8 21 2 149 16 185 21 17
3 93 8 170 11 77 4 141 8 143 9 5 4 313 -3 415 -9z"/>
</g>
</svg>
